<svg xmlns="http://www.w3.org/2000/svg" viewBox="0 0 22 22" width="22" height="22">
  <path fill="#4285F4" d="M21.6 11.2c0-.8-.1-1.5-.2-2.2H11v4.2h5.9c-.3 1.4-1 2.5-2.2 3.3v2.7h3.5c2.1-1.9 3.4-4.7 3.4-8z"/>
  <path fill="#34A853" d="M11 22c2.9 0 5.4-1 7.2-2.6l-3.5-2.7c-1 .7-2.2 1.1-3.7 1.1-2.8 0-5.2-1.9-6.1-4.5H1.3v2.8C3.2 19.8 6.8 22 11 22z"/>
  <path fill="#FBBC05" d="M4.9 13.3c-.2-.7-.4-1.5-.4-2.3s.1-1.6.4-2.3V5.9H1.3C.5 7.4 0 9.2 0 11s.5 3.6 1.3 5.1l3.6-2.8z"/>
  <path fill="#EA4335" d="M11 4.4c1.6 0 3 .6 4.1 1.6l3.1-3.1C16.4 1.1 13.9 0 11 0 6.8 0 3.2 2.2 1.3 5.9l3.6 2.8C5.8 6.3 8.2 4.4 11 4.4z"/>
</svg>
